<?xml version="1.0" encoding="utf-8"?>
<!-- Generator: Adobe Illustrator 19.1.0, SVG Export Plug-In . SVG Version: 6.00 Build 0)  -->
<svg version="1.1" id="Layer_1" xmlns="http://www.w3.org/2000/svg" xmlns:xlink="http://www.w3.org/1999/xlink" x="0px" y="0px"
	 viewBox="0 0 70.9 80" style="enable-background:new 0 0 70.9 80;" xml:space="preserve">
<style type="text/css">
	.st0{fill:#FFFFFF;}
</style>
<g>
	<path class="st0" d="M37,64.5c-0.1,0-0.1,0-0.2,0l-4.1-16c1.4-0.6,2.7-1.6,3.6-2.8l1.6,0.9c0.3,0.2,0.6,0.2,0.8,0.2
		c0.6,0,1.2-0.3,1.5-0.8c0.5-0.8,0.2-1.8-0.6-2.3l-1.6-0.9c0.4-1.1,0.6-2.2,0.6-3.4c0-2.3-0.8-4.3-2-6l18-19
		c1.2,0.7,2.6,1.2,4.1,1.2c4.3,0,7.7-3.5,7.7-7.7c0-4.3-3.5-7.7-7.7-7.7c-4.3,0-7.7,3.5-7.7,7.7c0,1.5,0.5,3,1.2,4.2l-18,19
		c-1.6-1.1-3.5-1.7-5.6-1.7c-1.1,0-2.2,0.2-3.2,0.6l-0.9-1.7c-0.4-0.8-1.5-1.1-2.3-0.7c-0.8,0.4-1.1,1.5-0.7,2.3l0.9,1.6
		c-2.4,1.8-3.9,4.7-3.9,7.9c0,1.2,0.2,2.3,0.6,3.4l-4.6,2.8c0,0-0.1,0.1-0.1,0.1c0,0-0.1,0-0.1,0l-4.5,2.7c-1-1-2.5-1.6-4-1.6
		c-3.2,0-5.8,2.6-5.8,5.8c0,3.2,2.6,5.8,5.8,5.8c3.2,0,5.8-2.6,5.8-5.8c0-0.4-0.1-0.9-0.1-1.3l4.6-2.8c0,0,0.1-0.1,0.1-0.1
		c0,0,0.1,0,0.1,0l4.6-2.8c1.8,2.3,4.6,3.7,7.8,3.7c0.3,0,0.5-0.1,0.8-0.1l4.1,16c-2.5,1.3-4.2,3.9-4.2,6.9c0,4.3,3.5,7.7,7.7,7.7
		c4.3,0,7.7-3.5,7.7-7.7C44.8,68,41.3,64.5,37,64.5z M5.8,55.1c-1.4,0-2.4-1.1-2.4-2.4c0-1.4,1.1-2.5,2.4-2.5s2.4,1.1,2.4,2.5
		C8.3,54,7.2,55.1,5.8,55.1z M58.7,3.5c2.4,0,4.4,2,4.4,4.4s-2,4.4-4.4,4.4c-1.1,0-2.2-0.5-2.9-1.2c0-0.1-0.1-0.1-0.1-0.2
		c0,0-0.1,0-0.1-0.1C54.8,10,54.4,9,54.4,7.8C54.4,5.4,56.3,3.5,58.7,3.5z M22,39.4c0-3.7,3-6.7,6.7-6.7c3.7,0,6.7,3,6.7,6.7
		c0,3.7-3,6.7-6.7,6.7C25,46.1,22,43.1,22,39.4z M37,76.6c-2.4,0-4.4-2-4.4-4.4s2-4.4,4.4-4.4s4.3,2,4.3,4.4S39.4,76.6,37,76.6z"/>
	<path class="st0" d="M65.1,54.4c-1.6,0-3,0.6-4.1,1.7l-1.7-1c-0.8-0.5-1.8-0.2-2.3,0.6c-0.5,0.8-0.2,1.8,0.6,2.3l1.7,1
		c-0.1,0.4-0.1,0.8-0.1,1.2c0,3.2,2.6,5.8,5.8,5.8c3.2,0,5.8-2.6,5.8-5.8C70.9,57,68.3,54.4,65.1,54.4z M65.1,62.7
		c-1.4,0-2.4-1.1-2.4-2.5c0-1.3,1.1-2.4,2.4-2.4s2.4,1.1,2.4,2.4C67.6,61.6,66.5,62.7,65.1,62.7z"/>
	<path class="st0" d="M10.6,11.7c0.3,0,0.6,0,1-0.1l1,1.8c0.3,0.6,0.9,0.9,1.5,0.9c0.3,0,0.6-0.1,0.8-0.2c0.8-0.4,1.1-1.5,0.7-2.3
		l-0.9-1.6c1.1-1.1,1.8-2.6,1.8-4.2c0-3.2-2.6-5.8-5.8-5.8S4.8,2.6,4.8,5.8C4.8,9.1,7.4,11.7,10.6,11.7z M10.6,3.4
		c1.4,0,2.4,1.1,2.4,2.4c0,1-0.6,1.9-1.5,2.2c0,0,0,0,0,0c0,0,0,0,0,0c-0.3,0.1-0.6,0.2-0.9,0.2c-1.4,0-2.4-1.1-2.4-2.5
		C8.2,4.5,9.3,3.4,10.6,3.4z"/>
	<path class="st0" d="M15.6,18.8l3,5.5c0.3,0.6,0.9,0.9,1.5,0.9c0.3,0,0.6-0.1,0.8-0.2c0.8-0.4,1.1-1.5,0.7-2.3l-3-5.5
		c-0.4-0.8-1.5-1.1-2.3-0.7C15.4,17,15.1,18,15.6,18.8z"/>
	<path class="st0" d="M52.8,51.3l-6.6-3.8c-0.8-0.5-1.8-0.2-2.3,0.6c-0.5,0.8-0.2,1.8,0.6,2.3l6.6,3.8c0.3,0.2,0.6,0.2,0.8,0.2
		c0.6,0,1.2-0.3,1.5-0.8C53.9,52.8,53.6,51.8,52.8,51.3z"/>
</g>
</svg>
